<svg xmlns="http://www.w3.org/2000/svg"  viewBox="0 0 24 24" width="24px" height="24px"><path d="M20.726,14.204C20.908,13.483,21,12.745,21,12s-0.092-1.483-0.274-2.204l1.001-0.758c0.501-0.379,0.643-1.077,0.328-1.621	l-1.059-1.835c-0.315-0.544-0.99-0.77-1.568-0.525l-1.167,0.492c-1.075-1.047-2.375-1.8-3.807-2.205l-0.156-1.249	C14.221,1.471,13.688,1,13.059,1h-2.117c-0.629,0-1.163,0.471-1.24,1.095L9.545,3.344C8.113,3.749,6.813,4.501,5.738,5.549	L4.572,5.057c-0.58-0.243-1.253-0.019-1.569,0.526L1.944,7.417C1.63,7.961,1.771,8.659,2.272,9.039l1.001,0.758	C3.092,10.517,3,11.255,3,12s0.092,1.483,0.274,2.204l-1.001,0.758c-0.501,0.379-0.643,1.077-0.328,1.621l1.059,1.835	c0.315,0.545,0.988,0.77,1.568,0.525l1.166-0.492c1.076,1.047,2.376,1.8,3.808,2.205l0.156,1.25C9.779,22.529,10.312,23,10.941,23	h2.117c0.629,0,1.162-0.471,1.24-1.095l0.156-1.249c1.432-0.405,2.732-1.157,3.808-2.205l1.165,0.492	c0.579,0.243,1.253,0.019,1.569-0.526l1.059-1.834c0.314-0.544,0.173-1.242-0.328-1.622L20.726,14.204z M12,16c-2.206,0-4-1.794-4-4	s1.794-4,4-4s4,1.794,4,4S14.206,16,12,16z"/></svg>