<?xml version="1.0" encoding="UTF-8"?><svg id="a" xmlns="http://www.w3.org/2000/svg" viewBox="0 0 44.74 39.02"><path d="M24.87,29.02c.28,0,.5.22.5.5v7c0,1.38,1.12,2.5,2.5,2.5h10c1.38,0,2.5-1.12,2.5-2.5v-10.38c0-.45-.2-.87-.54-1.16l-.19-.16c-.45-.38-1.11-.37-1.56,0l-.18.15c-.34.29-.53.71-.53,1.15v9.89h-9v-6.5c0-1.92-1.58-3.5-3.5-3.5h-5c-1.92,0-3.5,1.58-3.5,3.5v6.5H7.37v-9.89c0-.44-.2-.87-.53-1.15l-.18-.15c-.45-.38-1.1-.38-1.56,0l-.19.16c-.34.29-.54.71-.54,1.16v10.38c0,1.38,1.12,2.5,2.5,2.5h10c1.38,0,2.5-1.12,2.5-2.5v-7c0-.28.22-.5.5-.5h5Z"/><path d="M31.19,23.31h0c-2.43,0-3.8-1.29-4.66-2.47-.73,1.08-2.03,2.44-4.15,2.45h-.01c-2.03,0-3.27-1.32-4.09-2.53-.88,1.24-2.23,2.54-4.72,2.55h0c-1.67,0-3-.71-3.84-2.01-1.54,1.42-3.09,1.73-4.55,1.82-1.65.11-3.24-.53-4.23-1.71-.79-.94-1.09-2.09-.82-3.18.5-2.05,2.5-9.94,3.92-15.24C4.48,1.23,6.08,0,7.91,0h28.92c1.83,0,3.43,1.23,3.9,2.99,1.43,5.32,3.42,13.2,3.92,15.24.26,1.08-.04,2.24-.82,3.18-.99,1.18-2.58,1.82-4.23,1.71-1.46-.1-3.01-.4-4.55-1.82-.84,1.3-2.18,2.01-3.84,2.01ZM26.48,17.2c.78,0,1.51.4,1.92,1.06.95,1.51,1.51,2.05,2.78,2.05h0c.8,0,1.23-.3,1.53-1.06.3-.76.96-1.3,1.76-1.43.78-.13,1.58.16,2.1.77,1.11,1.3,2.1,1.46,3.19,1.53.83.05,1.44-.3,1.74-.65.16-.19.24-.39.2-.54-.49-2.03-2.48-9.87-3.9-15.17-.12-.45-.53-.77-1-.77H7.91c-.47,0-.88.32-1,.77-1.41,5.28-3.4,13.13-3.9,15.17-.04.14.04.35.2.54.29.35.91.71,1.74.65,1.09-.07,2.08-.24,3.19-1.53.52-.61,1.31-.9,2.1-.77.8.13,1.46.67,1.76,1.43.3.76.73,1.06,1.53,1.06h0c1.28,0,1.85-.55,2.81-2.09.43-.68,1.16-1.1,1.97-1.08.8,0,1.52.42,1.93,1.11.8,1.35,1.35,2.03,2.11,2.03h0c.56,0,1.24-.23,2.11-1.88h0c.38-.72,1.11-1.19,1.92-1.22.03,0,.06,0,.09,0Z"/><path d="M10.88,6.74l-1.46,6.23c-.11.48.24,1.1.84,1.26.85.22,1.39-.24,1.46-.52l1.46-6.52c.05-.22,0-.95-.89-1.12-.95-.18-1.36.45-1.41.67Z"/><path d="M17.82,6.87l-.95,5.82c-.08.48.32,1.08.94,1.19.87.16,1.37-.35,1.41-.63l.93-6.11c.03-.22-.07-.95-.97-1.05-.96-.11-1.32.56-1.36.78Z"/><path d="M33.36,6.74l1.46,6.23c.11.48-.24,1.1-.84,1.26-.85.22-1.39-.24-1.46-.52l-1.46-6.52c-.05-.22,0-.95.89-1.12.95-.18,1.36.45,1.41.67Z"/><path d="M26.42,6.87l.95,5.82c.08.48-.32,1.08-.94,1.19-.87.16-1.37-.35-1.41-.63l-.93-6.11c-.03-.22.07-.95.97-1.05.96-.11,1.32.56,1.36.78Z"/></svg>