<?xml version="1.0" encoding="UTF-8"?><svg id="a" xmlns="http://www.w3.org/2000/svg" viewBox="0 0 44.74 39.02"><path d="M33.36,6.74l1.46,6.23c.11.48-.24,1.1-.84,1.26-.85.22-1.39-.24-1.46-.52l-1.46-6.52c-.05-.22,0-.95.89-1.12.95-.18,1.36.45,1.41.67ZM35.03,21.3c1.54,1.42,3.09,1.73,4.55,1.82,1.66.11,3.24-.53,4.23-1.71.79-.94,1.09-2.09.82-3.18-.5-2.04-2.49-9.92-3.92-15.24-.47-1.76-2.07-2.99-3.9-2.99H7.91c-1.82,0-3.43,1.23-3.9,2.99C2.59,8.29.59,16.18.09,18.23c-.26,1.09.04,2.24.82,3.18,1,1.18,2.58,1.82,4.23,1.71,1.46-.1,3.01-.4,4.55-1.82.84,1.3,2.18,2.01,3.84,2.01h0c2.5,0,3.84-1.31,4.72-2.55.82,1.21,2.05,2.53,4.09,2.53h.01c2.11,0,3.42-1.37,4.15-2.45.87,1.18,2.23,2.46,4.66,2.47h0c1.67,0,3-.71,3.84-2.01ZM12.29,6.07c.89.17.94.9.89,1.12l-1.46,6.52c-.06.28-.6.74-1.46.52-.6-.16-.96-.78-.84-1.26l1.46-6.23c.05-.22.46-.86,1.41-.67ZM19.18,6.09c.9.1,1,.83.97,1.05l-.93,6.11c-.04.28-.54.78-1.41.63-.61-.11-1.02-.71-.94-1.19l.95-5.82c.04-.22.39-.89,1.36-.78ZM26.42,6.87l.95,5.82c.08.48-.32,1.08-.94,1.19-.87.16-1.37-.35-1.41-.63l-.93-6.11c-.03-.22.07-.95.97-1.05.96-.11,1.32.56,1.36.78Z"/><path d="M39.58,24.63c-1.16-.63-2.69-.45-4.11-1.46-.24-.17-.59-.13-.78.1-.84,1.01-2.05,1.55-3.51,1.55h0c-2.01,0-3.28-.88-4.16-1.84-.27-.3-.73-.29-.99.02-.78.91-1.95,1.8-3.66,1.8h-.01c-1.67,0-2.8-.89-3.6-1.87-.26-.31-.72-.32-.98-.02-.88,1.01-2.16,1.91-4.22,1.91h0c-1.46,0-2.66-.54-3.51-1.55-.19-.23-.54-.27-.78-.1-1.42,1.01-2.94.83-4.11,1.46-.37.2-.78,1.05-.78,1.5v10.38c0,1.38,1.12,2.5,2.5,2.5h10c1.38,0,2.5-1.12,2.5-2.5v-7c0-.28.22-.5.5-.5h5c.28,0,.5.22.5.5v7c0,1.38,1.12,2.5,2.5,2.5h10c1.38,0,2.5-1.12,2.5-2.5v-10.38c0-.45-.41-1.3-.78-1.5Z"/></svg>